<svg width="121" height="42" viewBox="0 0 121 42" fill="none" xmlns="http://www.w3.org/2000/svg">
<g id="Frame 2087326335">
<g id="Group 22292">
<g id="Rectangles">
<path id="Vector" d="M17.5032 30.6855H24.1173C24.167 30.6855 24.2167 30.6953 24.2637 30.7148C24.3106 30.7343 24.3521 30.7622 24.388 30.7984C24.4239 30.8346 24.4515 30.8764 24.4708 30.9238C24.4901 30.9712 24.4998 31.02 24.4998 31.0715V41.6112C24.4998 41.6628 24.4901 41.7116 24.4708 41.7589C24.4515 41.8063 24.4239 41.8481 24.388 41.8843C24.3521 41.9206 24.3106 41.9484 24.2637 41.9679C24.2167 41.9874 24.167 41.9972 24.1173 41.9972H17.5032C17.4521 41.9972 17.4038 41.9874 17.3568 41.9679C17.3099 41.9484 17.2685 41.9206 17.2326 41.8843C17.1967 41.8481 17.1691 41.8063 17.1497 41.7589C17.1304 41.7116 17.1207 41.6628 17.1207 41.6112V31.0715C17.1207 31.02 17.1304 30.9712 17.1497 30.9238C17.1691 30.8764 17.1967 30.8346 17.2326 30.7984C17.2685 30.7622 17.3099 30.7343 17.3568 30.7148C17.4038 30.6953 17.4521 30.6855 17.5032 30.6855Z" fill="#2E4259"/>
<path id="Vector_2" d="M17.5061 8.63916H24.1202C24.1699 8.63916 24.2196 8.64891 24.2665 8.66982C24.3135 8.68932 24.3549 8.71719 24.3908 8.75342C24.4267 8.78965 24.4543 8.83145 24.4737 8.87883C24.493 8.9262 24.5027 8.97497 24.5027 9.02653V29.1041C24.5027 29.1556 24.493 29.2058 24.4737 29.2532C24.4543 29.3005 24.4267 29.3423 24.3908 29.3786C24.3549 29.4148 24.3135 29.4427 24.2665 29.4622C24.2196 29.4817 24.1699 29.4914 24.1202 29.4914H17.5061C17.455 29.4914 17.4066 29.4817 17.3597 29.4622C17.3127 29.4427 17.2713 29.4148 17.2354 29.3786C17.1995 29.3423 17.1719 29.3005 17.1526 29.2532C17.1332 29.2058 17.1222 29.1556 17.1222 29.1041V9.02653C17.1222 8.97497 17.1332 8.9262 17.1526 8.87883C17.1719 8.83145 17.1995 8.78965 17.2354 8.75342C17.2713 8.71719 17.3127 8.68932 17.3597 8.66982C17.4066 8.64891 17.455 8.63916 17.5061 8.63916Z" fill="#F7483B"/>
<path id="Vector_3" d="M25.6831 9.04233C25.6831 8.82142 25.8621 8.64233 26.0829 8.64233H32.6624C32.8832 8.64233 33.0622 8.82142 33.0622 9.04233V22.8396C33.0622 23.0605 32.8832 23.2396 32.6624 23.2396H26.0829C25.8621 23.2396 25.6831 23.0605 25.6831 22.8396V9.04233Z" fill="#F7483B"/>
<path id="Vector_4" d="M26.0629 24.4333H32.677C32.7267 24.4333 32.7764 24.4431 32.8234 24.4626C32.8703 24.4821 32.9118 24.51 32.9477 24.5462C32.9836 24.5824 33.0112 24.6242 33.0305 24.6716C33.0498 24.719 33.0595 24.7678 33.0595 24.8193V41.6126C33.0595 41.6642 33.0498 41.713 33.0305 41.7603C33.0112 41.8077 32.9836 41.8495 32.9477 41.8857C32.9118 41.922 32.8703 41.9498 32.8234 41.9693C32.7764 41.9902 32.7267 42 32.677 42H26.0629C26.0118 42 25.9635 41.9902 25.9165 41.9693C25.8696 41.9498 25.8282 41.922 25.7923 41.8857C25.7564 41.8495 25.7287 41.8077 25.7094 41.7603C25.6901 41.713 25.6804 41.6642 25.6804 41.6126V24.8193C25.6804 24.7678 25.6901 24.719 25.7094 24.6716C25.7287 24.6242 25.7564 24.5824 25.7923 24.5462C25.8282 24.51 25.8696 24.4821 25.9165 24.4626C25.9635 24.4431 26.0118 24.4333 26.0629 24.4333Z" fill="#2E4259"/>
<path id="Vector_5" d="M41.2198 16.7867C41.4406 16.7867 41.6196 16.9658 41.6196 17.1867V41.5976C41.6196 41.8185 41.4406 41.9976 41.2198 41.9976H34.6403C34.4195 41.9976 34.2405 41.8185 34.2405 41.5976V17.1867C34.2405 16.9658 34.4195 16.7867 34.6403 16.7867H41.2198Z" fill="#2E4259"/>
<path id="Vector_6" d="M41.6068 0.387366V7.06177C41.6068 7.11333 41.5971 7.1621 41.5764 7.20947C41.5571 7.25685 41.5295 7.29865 41.4936 7.33488C41.4577 7.37111 41.4162 7.39898 41.3693 7.41848C41.3223 7.43799 41.274 7.44775 41.2229 7.44775H7.76434C7.71324 7.44775 7.66354 7.4575 7.61659 7.47701C7.56964 7.49652 7.52821 7.52438 7.49231 7.56061C7.45641 7.59684 7.4288 7.63864 7.40808 7.68602C7.38875 7.73479 7.37909 7.78356 7.37909 7.83511V41.6043C7.37909 41.6558 7.36942 41.7046 7.35009 41.752C7.33076 41.7993 7.30314 41.8411 7.26724 41.8774C7.23134 41.9136 7.18992 41.9415 7.14297 41.961C7.09602 41.9805 7.04769 41.9902 6.9966 41.9902H0.383867C0.332777 41.9902 0.284449 41.9805 0.237501 41.961C0.190553 41.9415 0.149128 41.9136 0.113227 41.8774C0.0773256 41.8411 0.0497095 41.7993 0.0289972 41.752C0.0096659 41.7046 0 41.6558 0 41.6043V0.387366C0 0.335811 0.0096659 0.287041 0.0289972 0.239666C0.0483288 0.19229 0.0773256 0.150488 0.113227 0.114259C0.149128 0.0780305 0.190553 0.0501627 0.237501 0.0306549C0.284449 0.0111471 0.332777 0 0.383867 0H41.2229C41.274 0 41.3237 0.0111471 41.3693 0.0306549C41.4162 0.0501627 41.4577 0.0780305 41.4949 0.114259C41.5308 0.150488 41.5585 0.19229 41.5778 0.239666C41.5971 0.287041 41.6068 0.335811 41.6068 0.387366Z" fill="#2E4259"/>
<path id="Vector_7" d="M8.94511 8.63916H15.5592C15.6103 8.63916 15.6586 8.64891 15.7056 8.66982C15.7525 8.68932 15.794 8.71719 15.8299 8.75342C15.8658 8.78965 15.8934 8.83145 15.9127 8.87883C15.932 8.9262 15.9417 8.97497 15.9417 9.02653V25.8282C15.9417 25.8797 15.932 25.9285 15.9127 25.9759C15.8934 26.0233 15.8658 26.0651 15.8299 26.1013C15.794 26.1375 15.7525 26.1654 15.7056 26.1849C15.6586 26.2044 15.6103 26.2142 15.5592 26.2142H8.94511C8.89402 26.2142 8.84569 26.2044 8.79874 26.1849C8.75179 26.1654 8.71037 26.1375 8.67447 26.1013C8.63857 26.0651 8.61095 26.0233 8.59162 25.9759C8.57229 25.9285 8.56262 25.8797 8.56262 25.8282V9.02653C8.56262 8.97497 8.57229 8.9262 8.59162 8.87883C8.61095 8.83145 8.63857 8.78965 8.67447 8.75342C8.71037 8.71719 8.75179 8.68932 8.79874 8.66982C8.84569 8.64891 8.89402 8.63916 8.94511 8.63916Z" fill="#F7483B"/>
<path id="Vector_8" d="M34.6266 8.63916H41.2407C41.2918 8.63916 41.3402 8.64891 41.3871 8.66982C41.4341 8.68932 41.4755 8.71719 41.5114 8.75342C41.5473 8.78965 41.5749 8.83145 41.5942 8.87883C41.6136 8.9262 41.6232 8.97497 41.6232 9.02653V15.2105C41.6232 15.262 41.6136 15.3108 41.5942 15.3582C41.5749 15.4055 41.5473 15.4473 41.5114 15.4836C41.4755 15.5198 41.4341 15.5477 41.3871 15.5672C41.3402 15.5867 41.2918 15.5964 41.2407 15.5964H34.6266C34.5755 15.5964 34.5272 15.5867 34.4803 15.5672C34.4333 15.5477 34.3919 15.5198 34.356 15.4836C34.3201 15.4473 34.2925 15.4055 34.2731 15.3582C34.2538 15.3108 34.2441 15.262 34.2441 15.2105V9.02653C34.2441 8.97497 34.2538 8.9262 34.2731 8.87883C34.2925 8.83145 34.3201 8.78965 34.356 8.75342C34.3919 8.71719 34.4333 8.68932 34.4803 8.66982C34.5272 8.64891 34.5755 8.63916 34.6266 8.63916Z" fill="#F7483B"/>
</g>
<g id="Toshkent&#226;&#128;&#168;Menejment va&#226;&#128;&#168;Iqtisodiyot&#226;&#128;&#168;Instituti">
<path d="M49.6182 7.91123V2.18006H47.535V0.952649H53.0508V2.18006H50.9676V7.91123H49.6182Z" fill="#2E4259"/>
<path d="M56.883 8.0562C56.3511 8.0562 55.8718 7.96922 55.445 7.79525C55.0214 7.62129 54.6619 7.37484 54.3664 7.0559C54.0709 6.73697 53.8428 6.35521 53.6819 5.91064C53.5243 5.46606 53.4455 4.97316 53.4455 4.43194C53.4455 3.89072 53.5243 3.39782 53.6819 2.95324C53.8428 2.50866 54.0709 2.12691 54.3664 1.80797C54.6619 1.48904 55.0214 1.24259 55.445 1.06863C55.8718 0.894661 56.3511 0.807678 56.883 0.807678C57.4149 0.807678 57.8926 0.894661 58.3161 1.06863C58.7429 1.24259 59.104 1.48904 59.3995 1.80797C59.695 2.12691 59.9215 2.50866 60.0791 2.95324C60.24 3.39782 60.3205 3.89072 60.3205 4.43194C60.3205 4.97316 60.24 5.46606 60.0791 5.91064C59.9215 6.35521 59.695 6.73697 59.3995 7.0559C59.104 7.37484 58.7429 7.62129 58.3161 7.79525C57.8926 7.96922 57.4149 8.0562 56.883 8.0562ZM56.883 6.81912C57.2211 6.81912 57.5166 6.76274 57.7694 6.64999C58.0222 6.53723 58.2324 6.37776 58.3998 6.17158C58.5672 5.96218 58.692 5.7109 58.7741 5.41774C58.8594 5.12135 58.9021 4.79275 58.9021 4.43194C58.9021 4.0679 58.8594 3.7393 58.7741 3.44614C58.692 3.15298 58.5672 2.90331 58.3998 2.69713C58.2324 2.48772 58.0222 2.32665 57.7694 2.21389C57.5166 2.10114 57.2211 2.04476 56.883 2.04476C56.5448 2.04476 56.2493 2.10114 55.9965 2.21389C55.7437 2.32665 55.5336 2.48772 55.3662 2.69713C55.1987 2.90331 55.0723 3.15298 54.9869 3.44614C54.9049 3.7393 54.8638 4.0679 54.8638 4.43194C54.8638 4.79275 54.9049 5.12135 54.9869 5.41774C55.0723 5.7109 55.1987 5.96218 55.3662 6.17158C55.5336 6.37776 55.7437 6.53723 55.9965 6.64999C56.2493 6.76274 56.5448 6.81912 56.883 6.81912Z" fill="#2E4259"/>
<path d="M63.9826 8.0562C63.5821 8.0562 63.2111 8.00304 62.8696 7.89673C62.5315 7.79042 62.2327 7.63901 61.9733 7.44249C61.714 7.24275 61.5005 7.00436 61.3331 6.7273C61.1689 6.44703 61.0606 6.13293 61.0081 5.785L62.4067 5.58204C62.6103 6.4132 63.1651 6.82878 64.0713 6.82878C64.265 6.82878 64.4439 6.80623 64.6081 6.76113C64.7722 6.71603 64.915 6.65321 65.0365 6.57267C65.158 6.48891 65.2516 6.39226 65.3172 6.28273C65.3862 6.16997 65.4206 6.04916 65.4206 5.9203C65.4206 5.60137 65.1908 5.37586 64.7312 5.24377L62.8893 4.71221C61.819 4.39972 61.2839 3.78763 61.2839 2.87592C61.2839 2.56665 61.3479 2.28477 61.4759 2.03026C61.604 1.77576 61.7829 1.55991 62.0127 1.38273C62.2458 1.20232 62.5216 1.06379 62.8401 0.967146C63.1618 0.867277 63.5131 0.817343 63.894 0.817343C64.6491 0.817343 65.2729 0.992918 65.7654 1.34407C66.2611 1.69522 66.596 2.19939 66.77 2.85659L65.3221 3.09821C65.2434 2.75673 65.0792 2.49578 64.8297 2.31537C64.5834 2.13496 64.265 2.04476 63.8743 2.04476C63.6904 2.04476 63.5246 2.06409 63.3769 2.10275C63.2324 2.14141 63.1093 2.19617 63.0075 2.26705C62.9057 2.3347 62.8269 2.41685 62.7711 2.5135C62.7186 2.60692 62.6923 2.71001 62.6923 2.82277C62.6923 2.99673 62.7678 3.14331 62.9189 3.26251C63.0732 3.38171 63.3178 3.48641 63.6527 3.57661L64.8691 3.90038C65.5356 4.07757 66.028 4.32563 66.3465 4.64456C66.6682 4.96028 66.8291 5.35975 66.8291 5.84298C66.8291 6.17158 66.7602 6.47119 66.6223 6.7418C66.4844 7.01241 66.289 7.24598 66.0362 7.44249C65.7867 7.63579 65.4879 7.7872 65.1399 7.89673C64.7919 8.00304 64.4061 8.0562 63.9826 8.0562Z" fill="#2E4259"/>
<path d="M67.9116 7.91123V0.952649H69.2609V3.8134H72.4226V0.952649H73.772V7.91123H72.4226V5.04081H69.2609V7.91123H67.9116Z" fill="#2E4259"/>
<path d="M75.1544 0.952649H76.5038V4.16133L79.2026 0.952649H80.8376L77.8729 4.38362L81.0247 7.91123H79.3306L76.5038 4.74121V7.91123H75.1544V0.952649Z" fill="#2E4259"/>
<path d="M81.7143 7.91123V0.952649H86.3534V2.18006H83.0637V3.66843H85.7625V4.89584H83.0637V6.68381H86.3534V7.91123H81.7143Z" fill="#2E4259"/>
<path d="M87.5336 7.91123V0.952649H88.883L91.9856 5.64003V0.952649H93.335V7.91123H91.9856L88.883 3.22385V7.91123H87.5336Z" fill="#2E4259"/>
<path d="M96.2013 7.91123V2.18006H94.1182V0.952649H99.6339V2.18006H97.5507V7.91123H96.2013Z" fill="#2E4259"/>
<path d="M48.126 18.9566V11.998H49.4754L51.6718 16.4486L53.8683 11.998H55.2176V18.9566H53.8683V14.6075L52.2283 17.937H51.1153L49.4754 14.6075V18.9566H48.126Z" fill="#2E4259"/>
<path d="M56.6 18.9566V11.998H61.2391V13.2254H57.9494V14.7138H60.6482V15.9412H57.9494V17.7292H61.2391V18.9566H56.6Z" fill="#2E4259"/>
<path d="M62.4193 18.9566V11.998H63.7687L66.8713 16.6854V11.998H68.2207V18.9566H66.8713L63.7687 14.2692V18.9566H62.4193Z" fill="#2E4259"/>
<path d="M69.5948 18.9566V11.998H74.2339V13.2254H70.9442V14.7138H73.643V15.9412H70.9442V17.7292H74.2339V18.9566H69.5948Z" fill="#2E4259"/>
<path d="M76.9014 19.1016C76.619 19.1016 76.3613 19.0645 76.1282 18.9904C75.8951 18.9163 75.6866 18.8116 75.5028 18.6763C75.3222 18.541 75.1662 18.3767 75.0349 18.1834C74.9036 17.9869 74.8002 17.7678 74.7246 17.5262L76.0445 17.2169C76.0609 17.3072 76.0937 17.3925 76.143 17.4731C76.1922 17.5504 76.253 17.6196 76.3252 17.6809C76.4007 17.7388 76.4828 17.7856 76.5714 17.821C76.6601 17.8564 76.7504 17.8741 76.8423 17.8741C76.9047 17.8741 76.9703 17.8661 77.0393 17.85C77.1082 17.8339 77.1755 17.8097 77.2412 17.7775C77.3069 17.7421 77.366 17.697 77.4185 17.6422C77.4743 17.5874 77.5186 17.523 77.5515 17.4489C77.5909 17.3555 77.6138 17.2427 77.6204 17.1106C77.627 16.9753 77.6303 16.8175 77.6303 16.6371V11.998H78.9796V16.6371C78.9796 16.9882 78.9484 17.3152 78.8861 17.618C78.827 17.9176 78.7203 18.1786 78.566 18.4009C78.4116 18.6199 78.1999 18.7923 77.9307 18.9179C77.6614 19.0404 77.3183 19.1016 76.9014 19.1016Z" fill="#2E4259"/>
<path d="M80.4543 18.9566V11.998H81.8037L84.0001 16.4486L86.1965 11.998H87.5459V18.9566H86.1965V14.6075L84.5566 17.937H83.4436L81.8037 14.6075V18.9566H80.4543Z" fill="#2E4259"/>
<path d="M88.9283 18.9566V11.998H93.5674V13.2254H90.2777V14.7138H92.9765V15.9412H90.2777V17.7292H93.5674V18.9566H88.9283Z" fill="#2E4259"/>
<path d="M94.7476 18.9566V11.998H96.097L99.1996 16.6854V11.998H100.549V18.9566H99.1996L96.097 14.2692V18.9566H94.7476Z" fill="#2E4259"/>
<path d="M103.415 18.9566V13.2254H101.332V11.998H106.848V13.2254H104.765V18.9566H103.415Z" fill="#2E4259"/>
<path d="M110.97 18.9566L108.67 11.998H110.083L111.876 17.5359L113.664 11.998H115.077L112.777 18.9566H110.97Z" fill="#2E4259"/>
<path d="M121 18.9566H119.587L119.119 17.5069H116.474L116.006 18.9566H114.593L116.893 11.998H118.7L121 18.9566ZM118.72 16.2795L117.799 13.4187L116.873 16.2795H118.72Z" fill="#2E4259"/>
<path d="M48.2245 30.002V23.0434H49.5739V30.002H48.2245Z" fill="#2E4259"/>
<path d="M56.0487 29.6154C55.7828 29.7893 55.4873 29.9214 55.1622 30.0116C54.8372 30.1018 54.481 30.1469 54.0936 30.1469C53.5617 30.1469 53.0824 30.0599 52.6555 29.886C52.232 29.712 51.8725 29.4656 51.577 29.1466C51.2815 28.8277 51.0534 28.4459 50.8925 28.0014C50.7349 27.5568 50.6561 27.0639 50.6561 26.5227C50.6561 25.9814 50.7349 25.4885 50.8925 25.044C51.0534 24.5994 51.2815 24.2176 51.577 23.8987C51.8725 23.5798 52.232 23.3333 52.6555 23.1594C53.0824 22.9854 53.5617 22.8984 54.0936 22.8984C54.6254 22.8984 55.1031 22.9854 55.5267 23.1594C55.9535 23.3333 56.3146 23.5798 56.6101 23.8987C56.9056 24.2176 57.1321 24.5994 57.2897 25.044C57.4506 25.4885 57.531 25.9814 57.531 26.5227C57.531 26.9769 57.4752 27.3973 57.3636 27.7839C57.2553 28.1673 57.0944 28.5104 56.881 28.8132L57.4128 29.3351L56.5953 30.1469L56.0487 29.6154ZM54.0936 28.9098C54.4843 28.9098 54.8191 28.8341 55.0982 28.6827L54.0345 27.6438L54.8618 26.8319L55.8714 27.8226C55.9535 27.6422 56.0142 27.444 56.0536 27.2282C56.093 27.0091 56.1127 26.774 56.1127 26.5227C56.1127 26.1586 56.07 25.83 55.9847 25.5369C55.9026 25.2437 55.7778 24.994 55.6104 24.7879C55.443 24.5785 55.2328 24.4174 54.98 24.3046C54.7272 24.1919 54.4317 24.1355 54.0936 24.1355C53.7554 24.1355 53.4599 24.1919 53.2071 24.3046C52.9543 24.4174 52.7442 24.5785 52.5767 24.7879C52.4093 24.994 52.2829 25.2437 52.1975 25.5369C52.1155 25.83 52.0744 26.1586 52.0744 26.5227C52.0744 26.8835 52.1155 27.2121 52.1975 27.5085C52.2829 27.8016 52.4093 28.0529 52.5767 28.2623C52.7442 28.4685 52.9543 28.628 53.2071 28.7407C53.4599 28.8535 53.7554 28.9098 54.0936 28.9098Z" fill="#2E4259"/>
<path d="M59.814 30.002V24.2708H57.7308V23.0434H63.2465V24.2708H61.1634V30.002H59.814Z" fill="#2E4259"/>
<path d="M64.1337 30.002V23.0434H65.4831V30.002H64.1337Z" fill="#2E4259"/>
<path d="M69.6384 30.1469C69.2378 30.1469 68.8668 30.0938 68.5254 29.9875C68.1872 29.8812 67.8885 29.7297 67.6291 29.5332C67.3697 29.3335 67.1563 29.0951 66.9889 28.818C66.8247 28.5378 66.7164 28.2237 66.6638 27.8757L68.0625 27.6728C68.266 28.5039 68.8209 28.9195 69.727 28.9195C69.9207 28.9195 70.0997 28.897 70.2638 28.8519C70.428 28.8068 70.5708 28.7439 70.6923 28.6634C70.8138 28.5796 70.9073 28.483 70.973 28.3735C71.0419 28.2607 71.0764 28.1399 71.0764 28.011C71.0764 27.6921 70.8466 27.4666 70.3869 27.3345L68.5451 26.8029C67.4748 26.4905 66.9396 25.8784 66.9396 24.9667C66.9396 24.6574 67.0036 24.3755 67.1317 24.121C67.2597 23.8665 67.4387 23.6506 67.6685 23.4735C67.9016 23.2931 68.1774 23.1545 68.4958 23.0579C68.8176 22.958 69.1689 22.9081 69.5497 22.9081C70.3049 22.9081 70.9287 23.0836 71.4211 23.4348C71.9169 23.7859 72.2518 24.2901 72.4258 24.9473L70.9779 25.1889C70.8991 24.8475 70.735 24.5865 70.4854 24.4061C70.2392 24.2257 69.9207 24.1355 69.53 24.1355C69.3462 24.1355 69.1804 24.1548 69.0326 24.1935C68.8882 24.2321 68.7651 24.2869 68.6633 24.3578C68.5615 24.4254 68.4827 24.5076 68.4269 24.6042C68.3744 24.6977 68.3481 24.8007 68.3481 24.9135C68.3481 25.0875 68.4236 25.234 68.5746 25.3532C68.7289 25.4724 68.9735 25.5771 69.3084 25.6673L70.5248 25.9911C71.1913 26.1683 71.6838 26.4164 72.0023 26.7353C72.324 27.051 72.4849 27.4505 72.4849 27.9337C72.4849 28.2623 72.4159 28.5619 72.2781 28.8325C72.1402 29.1031 71.9448 29.3367 71.692 29.5332C71.4425 29.7265 71.1437 29.8779 70.7957 29.9875C70.4477 30.0938 70.0619 30.1469 69.6384 30.1469Z" fill="#2E4259"/>
<path d="M76.6108 30.1469C76.079 30.1469 75.5996 30.0599 75.1728 29.886C74.7493 29.712 74.3898 29.4656 74.0943 29.1466C73.7988 28.8277 73.5706 28.4459 73.4097 28.0014C73.2522 27.5568 73.1734 27.0639 73.1734 26.5227C73.1734 25.9814 73.2522 25.4885 73.4097 25.044C73.5706 24.5994 73.7988 24.2176 74.0943 23.8987C74.3898 23.5798 74.7493 23.3333 75.1728 23.1594C75.5996 22.9854 76.079 22.8984 76.6108 22.8984C77.1427 22.8984 77.6204 22.9854 78.0439 23.1594C78.4707 23.3333 78.8319 23.5798 79.1274 23.8987C79.4229 24.2176 79.6494 24.5994 79.807 25.044C79.9679 25.4885 80.0483 25.9814 80.0483 26.5227C80.0483 27.0639 79.9679 27.5568 79.807 28.0014C79.6494 28.4459 79.4229 28.8277 79.1274 29.1466C78.8319 29.4656 78.4707 29.712 78.0439 29.886C77.6204 30.0599 77.1427 30.1469 76.6108 30.1469ZM76.6108 28.9098C76.949 28.9098 77.2445 28.8535 77.4973 28.7407C77.7501 28.628 77.9602 28.4685 78.1277 28.2623C78.2951 28.0529 78.4199 27.8016 78.5019 27.5085C78.5873 27.2121 78.63 26.8835 78.63 26.5227C78.63 26.1586 78.5873 25.83 78.5019 25.5369C78.4199 25.2437 78.2951 24.994 78.1277 24.7879C77.9602 24.5785 77.7501 24.4174 77.4973 24.3046C77.2445 24.1919 76.949 24.1355 76.6108 24.1355C76.2727 24.1355 75.9772 24.1919 75.7244 24.3046C75.4716 24.4174 75.2614 24.5785 75.094 24.7879C74.9266 24.994 74.8002 25.2437 74.7148 25.5369C74.6327 25.83 74.5917 26.1586 74.5917 26.5227C74.5917 26.8835 74.6327 27.2121 74.7148 27.5085C74.8002 27.8016 74.9266 28.0529 75.094 28.2623C75.2614 28.4685 75.4716 28.628 75.7244 28.7407C75.9772 28.8535 76.2727 28.9098 76.6108 28.9098Z" fill="#2E4259"/>
<path d="M81.0314 30.002V23.0434H83.3362C83.8943 23.0434 84.3917 23.1207 84.8284 23.2753C85.265 23.43 85.6328 23.6555 85.9315 23.9519C86.2336 24.2482 86.4618 24.6123 86.6161 25.044C86.7737 25.4757 86.8525 25.9686 86.8525 26.5227C86.8525 27.0768 86.7737 27.5697 86.6161 28.0014C86.4618 28.4331 86.2336 28.7971 85.9315 29.0935C85.6328 29.3899 85.265 29.6154 84.8284 29.77C84.3917 29.9246 83.8943 30.002 83.3362 30.002H81.0314ZM82.3808 28.7745H83.1983C83.9469 28.7745 84.5083 28.5861 84.8826 28.2092C85.2568 27.8322 85.444 27.2701 85.444 26.5227C85.444 25.0214 84.6954 24.2708 83.1983 24.2708H82.3808V28.7745Z" fill="#2E4259"/>
<path d="M88.1323 30.002V23.0434H89.4817V30.002H88.1323Z" fill="#2E4259"/>
<path d="M92.3019 30.002V27.1702L89.874 23.0434H91.4401L92.9766 25.6625L94.5131 23.0434H96.0792L93.6513 27.1702V30.002H92.3019Z" fill="#2E4259"/>
<path d="M99.4166 30.1469C98.8848 30.1469 98.4054 30.0599 97.9786 29.886C97.5551 29.712 97.1956 29.4656 96.9001 29.1466C96.6046 28.8277 96.3764 28.4459 96.2156 28.0014C96.058 27.5568 95.9792 27.0639 95.9792 26.5227C95.9792 25.9814 96.058 25.4885 96.2156 25.044C96.3764 24.5994 96.6046 24.2176 96.9001 23.8987C97.1956 23.5798 97.5551 23.3333 97.9786 23.1594C98.4054 22.9854 98.8848 22.8984 99.4166 22.8984C99.9485 22.8984 100.426 22.9854 100.85 23.1594C101.277 23.3333 101.638 23.5798 101.933 23.8987C102.229 24.2176 102.455 24.5994 102.613 25.044C102.774 25.4885 102.854 25.9814 102.854 26.5227C102.854 27.0639 102.774 27.5568 102.613 28.0014C102.455 28.4459 102.229 28.8277 101.933 29.1466C101.638 29.4656 101.277 29.712 100.85 29.886C100.426 30.0599 99.9485 30.1469 99.4166 30.1469ZM99.4166 28.9098C99.7548 28.9098 100.05 28.8535 100.303 28.7407C100.556 28.628 100.766 28.4685 100.933 28.2623C101.101 28.0529 101.226 27.8016 101.308 27.5085C101.393 27.2121 101.436 26.8835 101.436 26.5227C101.436 26.1586 101.393 25.83 101.308 25.5369C101.226 25.2437 101.101 24.994 100.933 24.7879C100.766 24.5785 100.556 24.4174 100.303 24.3046C100.05 24.1919 99.7548 24.1355 99.4166 24.1355C99.0785 24.1355 98.783 24.1919 98.5302 24.3046C98.2774 24.4174 98.0673 24.5785 97.8998 24.7879C97.7324 24.994 97.606 25.2437 97.5206 25.5369C97.4385 25.83 97.3975 26.1586 97.3975 26.5227C97.3975 26.8835 97.4385 27.2121 97.5206 27.5085C97.606 27.8016 97.7324 28.0529 97.8998 28.2623C98.0673 28.4685 98.2774 28.628 98.5302 28.7407C98.783 28.8535 99.0785 28.9098 99.4166 28.9098Z" fill="#2E4259"/>
<path d="M105.137 30.002V24.2708H103.054V23.0434H108.57V24.2708H106.486V30.002H105.137Z" fill="#2E4259"/>
<path d="M48.2245 41.0473V34.0887H49.5739V41.0473H48.2245Z" fill="#2E4259"/>
<path d="M51.0501 41.0473V34.0887H52.3995L55.502 38.7761V34.0887H56.8514V41.0473H55.502L52.3995 36.3599V41.0473H51.0501Z" fill="#2E4259"/>
<path d="M60.9047 41.1923C60.5041 41.1923 60.1331 41.1391 59.7917 41.0328C59.4535 40.9265 59.1547 40.7751 58.8954 40.5786C58.636 40.3788 58.4226 40.1405 58.2551 39.8634C58.091 39.5831 57.9826 39.269 57.9301 38.9211L59.3287 38.7181C59.5323 39.5493 60.0871 39.9649 60.9933 39.9649C61.187 39.9649 61.3659 39.9423 61.5301 39.8972C61.6943 39.8521 61.8371 39.7893 61.9585 39.7088C62.08 39.625 62.1736 39.5284 62.2393 39.4188C62.3082 39.3061 62.3427 39.1853 62.3427 39.0564C62.3427 38.7375 62.1129 38.512 61.6532 38.3799L59.8114 37.8483C58.741 37.5358 58.2059 36.9237 58.2059 36.012C58.2059 35.7027 58.2699 35.4209 58.398 35.1664C58.526 34.9119 58.7049 34.696 58.9348 34.5188C59.1679 34.3384 59.4436 34.1999 59.7621 34.1032C60.0839 34.0034 60.4352 33.9534 60.816 33.9534C61.5711 33.9534 62.1949 34.129 62.6874 34.4802C63.1832 34.8313 63.5181 35.3355 63.6921 35.9927L62.2442 36.2343C62.1654 35.8928 62.0012 35.6319 61.7517 35.4515C61.5055 35.2711 61.187 35.1809 60.7963 35.1809C60.6124 35.1809 60.4466 35.2002 60.2989 35.2388C60.1544 35.2775 60.0313 35.3323 59.9296 35.4031C59.8278 35.4708 59.749 35.5529 59.6932 35.6496C59.6406 35.743 59.6144 35.8461 59.6144 35.9589C59.6144 36.1328 59.6899 36.2794 59.8409 36.3986C59.9952 36.5178 60.2398 36.6225 60.5747 36.7127L61.7911 37.0365C62.4576 37.2137 62.9501 37.4617 63.2685 37.7807C63.5903 38.0964 63.7512 38.4958 63.7512 38.9791C63.7512 39.3077 63.6822 39.6073 63.5443 39.8779C63.4064 40.1485 63.2111 40.3821 62.9583 40.5786C62.7088 40.7719 62.41 40.9233 62.062 41.0328C61.714 41.1391 61.3282 41.1923 60.9047 41.1923Z" fill="#2E4259"/>
<path d="M66.3258 41.0473V35.3162H64.2426V34.0887H69.7583V35.3162H67.6752V41.0473H66.3258Z" fill="#2E4259"/>
<path d="M70.6456 41.0473V34.0887H71.995V41.0473H70.6456Z" fill="#2E4259"/>
<path d="M74.9633 41.0473V35.3162H72.8802V34.0887H78.3959V35.3162H76.3127V41.0473H74.9633Z" fill="#2E4259"/>
<path d="M82.0705 41.1923C81.6437 41.1923 81.253 41.1311 80.8984 41.0087C80.5439 40.8862 80.2385 40.7026 79.9824 40.4578C79.7296 40.2097 79.5326 39.9021 79.3915 39.5348C79.2536 39.1643 79.1846 38.7342 79.1846 38.2446V34.0887H80.534V38.1866C80.534 38.789 80.6571 39.2352 80.9034 39.5251C81.1496 39.8119 81.5387 39.9552 82.0705 39.9552C82.6024 39.9552 82.9915 39.8119 83.2377 39.5251C83.4839 39.2352 83.607 38.789 83.607 38.1866V34.0887H84.9564V38.2446C84.9564 38.7342 84.8858 39.1643 84.7447 39.5348C84.6068 39.9021 84.4098 40.2097 84.1537 40.4578C83.9009 40.7026 83.5972 40.8862 83.2426 41.0087C82.8913 41.1311 82.5006 41.1923 82.0705 41.1923Z" fill="#2E4259"/>
<path d="M87.8235 41.0473V35.3162H85.7403V34.0887H91.256V35.3162H89.1729V41.0473H87.8235Z" fill="#2E4259"/>
<path d="M92.1433 41.0473V34.0887H93.4926V41.0473H92.1433Z" fill="#2E4259"/>
</g>
</g>
</g>
</svg>
