<svg width="130" height="50" viewBox="0 0 130 50" fill="none" xmlns="http://www.w3.org/2000/svg">
<path d="M56.2138 1.83118C56.0941 1.83118 56.0226 1.90416 56.0226 2.0236V3.22125C56.0226 3.34069 56.0941 3.41368 56.2138 3.41368H57.6073V11.225C57.6073 11.3577 57.6805 11.4174 57.8002 11.4174H59.049C59.1804 11.4174 59.2419 11.3577 59.2419 11.225V3.41368H60.6338C60.7668 3.41368 60.8267 3.34069 60.8267 3.22125V2.0236C60.8267 1.90416 60.7668 1.83118 60.6338 1.83118H56.2138Z" fill="white"/>
<path d="M61.7859 9.69237C61.7859 10.8187 62.3862 11.4175 63.5153 11.4175H64.8606C65.9897 11.4175 66.5916 10.8187 66.5916 9.69237V3.55645C66.5916 2.43013 65.9897 1.8313 64.8606 1.8313H63.5153C62.3862 1.8313 61.7859 2.43013 61.7859 3.55645V9.69237ZM63.8645 9.87152C63.5519 9.87152 63.3839 9.71559 63.3839 9.39212V3.8567C63.3839 3.54484 63.5519 3.3773 63.8645 3.3773H64.5612C64.8739 3.3773 65.0418 3.54484 65.0418 3.8567V9.39212C65.0418 9.71559 64.8739 9.87152 64.5612 9.87152H63.8645Z" fill="white"/>
<path d="M69.5193 1.8313C68.4035 1.8313 67.7899 2.43013 67.7899 3.55645V6.38471C67.7899 6.61197 67.898 6.75629 68.1142 6.82761L70.961 7.76318V9.35729C70.961 9.68076 70.7931 9.83668 70.4805 9.83668H69.9034C69.6041 9.83668 69.4245 9.68076 69.4245 9.35729V8.43334C69.4245 8.30229 69.363 8.24257 69.2316 8.24257H67.9828C67.8631 8.24257 67.7899 8.30229 67.7899 8.43334V9.69237C67.7899 10.8187 68.4035 11.4175 69.5193 11.4175H70.8646C71.9937 11.4175 72.5957 10.8187 72.5957 9.69237V6.92383C72.5957 6.69657 72.4876 6.56552 72.283 6.48092L69.4245 5.54702V3.89319C69.4245 3.58134 69.6041 3.4138 69.9034 3.4138H70.4805C70.8047 3.4138 70.961 3.58134 70.961 3.89319V4.8271C70.961 4.94653 71.0325 5.01952 71.1539 5.01952H72.4028C72.5341 5.01952 72.5957 4.94653 72.5957 4.8271V3.55645C72.5957 2.43013 71.9937 1.8313 70.8646 1.8313H69.5193Z" fill="white"/>
<path d="M76.9651 5.83399H75.4286V2.02372C75.4286 1.90429 75.3554 1.8313 75.2357 1.8313H73.9985C73.8538 1.8313 73.7939 1.90429 73.7939 2.02372V11.2251C73.7939 11.3462 73.8538 11.4175 73.9985 11.4175H75.2357C75.3554 11.4175 75.4286 11.3462 75.4286 11.2251V7.41483H76.9651V11.2251C76.9651 11.3462 77.0366 11.4175 77.158 11.4175H78.3952C78.5382 11.4175 78.5997 11.3462 78.5997 11.2251V2.02372C78.5997 1.90429 78.5382 1.8313 78.3952 1.8313H77.158C77.0366 1.8313 76.9651 1.90429 76.9651 2.02372V5.83399Z" fill="white"/>
<path d="M84.9397 11.4175C85.131 11.4175 85.2041 11.2981 85.1193 11.1422L82.9459 6.30177L84.988 2.11993C85.0711 1.95239 84.9996 1.8313 84.82 1.8313H83.5579C83.4265 1.8313 83.3417 1.89102 83.2818 2.01211L81.4327 5.78589V2.07183C81.4327 1.9159 81.3479 1.8313 81.1916 1.8313H80.0392C79.8829 1.8313 79.7981 1.9159 79.7981 2.07183V11.1787C79.7981 11.3329 79.8829 11.4175 80.0392 11.4175H81.1916C81.3479 11.4175 81.4327 11.3329 81.4327 11.1787V8.52955L81.8767 7.67858L83.3899 11.2384C83.4382 11.3578 83.5213 11.4175 83.666 11.4175H84.9397Z" fill="white"/>
<path d="M91.0268 2.02372C91.0268 1.90429 90.9786 1.8313 90.8356 1.8313H86.4156C86.3075 1.8313 86.2344 1.90429 86.2344 2.02372V11.2251C86.2344 11.3462 86.3075 11.4175 86.4156 11.4175H90.8356C90.9786 11.4175 91.0268 11.3462 91.0268 11.2251V10.0274C91.0268 9.8964 90.9786 9.83668 90.8356 9.83668H87.8324V7.41483H90.1272C90.2469 7.41483 90.3184 7.3435 90.3184 7.21246V6.02475C90.3184 5.89371 90.2469 5.82238 90.1272 5.82238H87.8324V3.42541H90.8356C90.9786 3.42541 91.0268 3.34081 91.0268 3.22138V2.02372Z" fill="white"/>
<path d="M95.9148 1.8313C95.7818 1.8313 95.7219 1.90429 95.7219 2.02372V7.07975H95.6504L93.8246 1.98723C93.788 1.8794 93.7165 1.8313 93.6084 1.8313H92.4195C92.2997 1.8313 92.2266 1.90429 92.2266 2.02372V11.2251C92.2266 11.3462 92.2997 11.4175 92.4195 11.4175H93.6683C93.7997 11.4175 93.8612 11.3462 93.8612 11.2251V6.14585H93.921L95.7585 11.2616C95.7951 11.3694 95.8666 11.4175 95.9747 11.4175H97.1637C97.2834 11.4175 97.3566 11.3462 97.3566 11.2251V2.02372C97.3566 1.90429 97.2834 1.8313 97.1637 1.8313H95.9148Z" fill="white"/>
<path d="M98.5065 1.8313C98.3868 1.8313 98.3153 1.90429 98.3153 2.02372V3.22138C98.3153 3.34081 98.3868 3.4138 98.5065 3.4138H99.9V11.2251C99.9 11.3578 99.9732 11.4175 100.093 11.4175H101.342C101.473 11.4175 101.535 11.3578 101.535 11.2251V3.4138H102.926C103.06 3.4138 103.119 3.34081 103.119 3.22138V2.02372C103.119 1.90429 103.06 1.8313 102.926 1.8313H98.5065Z" fill="white"/>
<path d="M61.284 13.8558C61.1393 13.8558 61.0545 13.9288 61.0196 14.0715L59.686 20.0399L58.3523 14.0715C58.3157 13.9288 58.2326 13.8558 58.0879 13.8558H56.5032C56.3469 13.8558 56.2621 13.9404 56.2621 14.0964V23.2032C56.2621 23.3575 56.3469 23.4421 56.5032 23.4421H57.6074C57.7637 23.4421 57.8485 23.3575 57.8485 23.2032V17.8104H57.9316L59.1206 23.2264C59.1572 23.3707 59.242 23.4421 59.385 23.4421H59.9736C60.1183 23.4421 60.2015 23.3707 60.238 23.2264L61.427 17.8104H61.5118V23.2032C61.5118 23.3575 61.595 23.4421 61.7513 23.4421H62.8687C63.025 23.4421 63.1082 23.3575 63.1082 23.2032V14.0964C63.1082 13.9404 63.025 13.8558 62.8687 13.8558H61.284Z" fill="white"/>
<path d="M69.1001 14.0483C69.1001 13.9288 69.0518 13.8558 68.9088 13.8558H64.4889C64.3808 13.8558 64.3076 13.9288 64.3076 14.0483V23.2496C64.3076 23.3707 64.3808 23.4421 64.4889 23.4421H68.9088C69.0518 23.4421 69.1001 23.3707 69.1001 23.2496V22.052C69.1001 21.9209 69.0518 21.8612 68.9088 21.8612H65.9057V19.4394H68.2004C68.3202 19.4394 68.3917 19.368 68.3917 19.237V18.0493C68.3917 17.9182 68.3202 17.8469 68.2004 17.8469H65.9057V15.4499H68.9088C69.0518 15.4499 69.1001 15.3653 69.1001 15.2459V14.0483Z" fill="white"/>
<path d="M73.988 13.8558C73.8549 13.8558 73.7951 13.9288 73.7951 14.0483V19.1043H73.7236L71.8977 14.0118C71.8611 13.9039 71.7896 13.8558 71.6815 13.8558H70.4926C70.3728 13.8558 70.2997 13.9288 70.2997 14.0483V23.2496C70.2997 23.3707 70.3728 23.4421 70.4926 23.4421H71.7414C71.8728 23.4421 71.9343 23.3707 71.9343 23.2496V18.1704H71.9942L73.8317 23.2861C73.8682 23.394 73.9397 23.4421 74.0478 23.4421H75.2368C75.3565 23.4421 75.4297 23.3707 75.4297 23.2496V14.0483C75.4297 13.9288 75.3565 13.8558 75.2368 13.8558H73.988Z" fill="white"/>
<path d="M81.4204 14.0483C81.4204 13.9288 81.3721 13.8558 81.2291 13.8558H76.8092C76.7011 13.8558 76.6279 13.9288 76.6279 14.0483V23.2496C76.6279 23.3707 76.7011 23.4421 76.8092 23.4421H81.2291C81.3721 23.4421 81.4204 23.3707 81.4204 23.2496V22.052C81.4204 21.9209 81.3721 21.8612 81.2291 21.8612H78.226V19.4394H80.5207C80.6405 19.4394 80.712 19.368 80.712 19.237V18.0493C80.712 17.9182 80.6405 17.8469 80.5207 17.8469H78.226V15.4499H81.2291C81.3721 15.4499 81.4204 15.3653 81.4204 15.2459V14.0483Z" fill="white"/>
<path d="M85.791 21.3818C85.791 21.692 85.623 21.8612 85.3104 21.8612H84.6868C84.3742 21.8612 84.2063 21.692 84.2063 21.3818V20.4711C84.2063 20.3501 84.1331 20.2787 84.0134 20.2787H82.8128C82.6797 20.2787 82.6199 20.3501 82.6199 20.4711V21.7169C82.6199 22.8432 83.2202 23.4421 84.3493 23.4421H85.6945C86.812 23.4421 87.4256 22.8432 87.4256 21.7169V14.0483C87.4256 13.9288 87.3524 13.8558 87.2327 13.8558H85.9839C85.8509 13.8558 85.791 13.9288 85.791 14.0483V21.3818Z" fill="white"/>
<path d="M93.6459 13.8558C93.5013 13.8558 93.4165 13.9288 93.3815 14.0715L92.0479 20.0399L90.7143 14.0715C90.6777 13.9288 90.5945 13.8558 90.4499 13.8558H88.8651C88.7088 13.8558 88.624 13.9404 88.624 14.0964V23.2032C88.624 23.3575 88.7088 23.4421 88.8651 23.4421H89.9693C90.1256 23.4421 90.2104 23.3575 90.2104 23.2032V17.8104H90.2936L91.4825 23.2264C91.5191 23.3707 91.6039 23.4421 91.7469 23.4421H92.3356C92.4803 23.4421 92.5634 23.3707 92.6 23.2264L93.7889 17.8104H93.8738V23.2032C93.8738 23.3575 93.9569 23.4421 94.1132 23.4421H95.2307C95.387 23.4421 95.4701 23.3575 95.4701 23.2032V14.0964C95.4701 13.9404 95.387 13.8558 95.2307 13.8558H93.6459Z" fill="white"/>
<path d="M101.462 14.0483C101.462 13.9288 101.414 13.8558 101.271 13.8558H96.8508C96.7427 13.8558 96.6696 13.9288 96.6696 14.0483V23.2496C96.6696 23.3707 96.7427 23.4421 96.8508 23.4421H101.271C101.414 23.4421 101.462 23.3707 101.462 23.2496V22.052C101.462 21.9209 101.414 21.8612 101.271 21.8612H98.2676V19.4394H100.562C100.682 19.4394 100.754 19.368 100.754 19.237V18.0493C100.754 17.9182 100.682 17.8469 100.562 17.8469H98.2676V15.4499H101.271C101.414 15.4499 101.462 15.3653 101.462 15.2459V14.0483Z" fill="white"/>
<path d="M106.35 13.8558C106.217 13.8558 106.157 13.9288 106.157 14.0483V19.1043H106.086L104.26 14.0118C104.223 13.9039 104.152 13.8558 104.043 13.8558H102.855C102.735 13.8558 102.662 13.9288 102.662 14.0483V23.2496C102.662 23.3707 102.735 23.4421 102.855 23.4421H104.103C104.235 23.4421 104.296 23.3707 104.296 23.2496V18.1704H104.356L106.194 23.2861C106.23 23.394 106.302 23.4421 106.41 23.4421H107.599C107.718 23.4421 107.792 23.3707 107.792 23.2496V14.0483C107.792 13.9288 107.718 13.8558 107.599 13.8558H106.35Z" fill="white"/>
<path d="M108.942 13.8558C108.822 13.8558 108.75 13.9288 108.75 14.0483V15.2459C108.75 15.3653 108.822 15.4383 108.942 15.4383H110.335V23.2496C110.335 23.3823 110.408 23.4421 110.528 23.4421H111.777C111.908 23.4421 111.97 23.3823 111.97 23.2496V15.4383H113.362C113.495 15.4383 113.555 15.3653 113.555 15.2459V14.0483C113.555 13.9288 113.495 13.8558 113.362 13.8558H108.942Z" fill="white"/>
<path d="M121.708 13.8558C121.563 13.8558 121.48 13.9288 121.443 14.0715L120.171 20.4944L118.909 14.0715C118.873 13.9288 118.789 13.8558 118.645 13.8558H117.504C117.324 13.8558 117.251 13.952 117.288 14.1196L119.305 23.2264C119.342 23.3707 119.426 23.4421 119.569 23.4421H120.772C120.915 23.4421 120.999 23.3707 121.036 23.2264L123.065 14.1196C123.101 13.952 123.03 13.8558 122.849 13.8558H121.708Z" fill="white"/>
<path d="M129.826 23.4421C129.971 23.4421 130.018 23.3707 129.994 23.238L128 14.0234C127.975 13.9039 127.904 13.8558 127.796 13.8558H126.126C126.018 13.8558 125.947 13.9039 125.922 14.0234L123.928 23.238C123.891 23.3707 123.953 23.4421 124.084 23.4421H125.37C125.478 23.4421 125.538 23.3823 125.563 23.2745L125.887 21.5245H128.024L128.361 23.2745C128.385 23.3823 128.444 23.4421 128.553 23.4421H129.826ZM127.724 20.1344H126.186L126.954 15.9526L127.724 20.1344Z" fill="white"/>
<path d="M56.455 25.8799C56.3219 25.8799 56.2621 25.9529 56.2621 26.0723V35.2737C56.2621 35.3948 56.3219 35.4661 56.455 35.4661H57.7038C57.8235 35.4661 57.8967 35.3948 57.8967 35.2737V26.0723C57.8967 25.9529 57.8235 25.8799 57.7038 25.8799H56.455Z" fill="white"/>
<path d="M63.9017 27.605C63.9017 26.4787 63.2997 25.8799 62.1706 25.8799H60.8253C59.6962 25.8799 59.0959 26.4787 59.0959 27.605V33.741C59.0959 34.8673 59.6962 35.4661 60.8253 35.4661H61.5703L61.9794 36.3536C62.0276 36.4481 62.0625 36.5211 62.1839 36.5211H63.4328C63.5641 36.5211 63.6606 36.4365 63.6007 36.3055L63.1201 35.2737C63.6373 35.0116 63.9017 34.4957 63.9017 33.741V27.605ZM60.7306 27.9418C60.7306 27.6299 60.8985 27.4624 61.2095 27.4624H61.8347C62.1473 27.4624 62.3153 27.6299 62.3153 27.9418V33.4059C62.3153 33.7293 62.1473 33.8853 61.8347 33.8853H61.2095C60.8985 33.8853 60.7306 33.7293 60.7306 33.4059V27.9418Z" fill="white"/>
<path d="M65.0519 25.8799C64.9322 25.8799 64.8607 25.9529 64.8607 26.0723V27.27C64.8607 27.3894 64.9322 27.4624 65.0519 27.4624H66.4454V35.2737C66.4454 35.4064 66.5186 35.4661 66.6383 35.4661H67.8872C68.0185 35.4661 68.0801 35.4064 68.0801 35.2737V27.4624H69.4719C69.6049 27.4624 69.6648 27.3894 69.6648 27.27V26.0723C69.6648 25.9529 69.6049 25.8799 69.4719 25.8799H65.0519Z" fill="white"/>
<path d="M70.8168 25.8799C70.6838 25.8799 70.6239 25.9529 70.6239 26.0723V35.2737C70.6239 35.3948 70.6838 35.4661 70.8168 35.4661H72.0656C72.1854 35.4661 72.2585 35.3948 72.2585 35.2737V26.0723C72.2585 25.9529 72.1854 25.8799 72.0656 25.8799H70.8168Z" fill="white"/>
<path d="M75.187 25.8799C74.0712 25.8799 73.4576 26.4787 73.4576 27.605V30.4333C73.4576 30.6606 73.5657 30.8049 73.7819 30.8762L76.6288 31.8118V33.4059C76.6288 33.7293 76.4608 33.8853 76.1482 33.8853H75.5712C75.2718 33.8853 75.0923 33.7293 75.0923 33.4059V32.4819C75.0923 32.3509 75.0307 32.2912 74.8994 32.2912H73.6505C73.5308 32.2912 73.4576 32.3509 73.4576 32.4819V33.741C73.4576 34.8673 74.0712 35.4661 75.187 35.4661H76.5323C77.6614 35.4661 78.2634 34.8673 78.2634 33.741V30.9724C78.2634 30.7452 78.1553 30.6141 77.9508 30.5295L75.0923 29.5956V27.9418C75.0923 27.6299 75.2718 27.4624 75.5712 27.4624H76.1482C76.4725 27.4624 76.6288 27.6299 76.6288 27.9418V28.8757C76.6288 28.9951 76.7003 29.0681 76.8217 29.0681H78.0705C78.2019 29.0681 78.2634 28.9951 78.2634 28.8757V27.605C78.2634 26.4787 77.6614 25.8799 76.5323 25.8799H75.187Z" fill="white"/>
<path d="M79.4618 33.741C79.4618 34.8673 80.0621 35.4661 81.1912 35.4661H82.5365C83.6656 35.4661 84.2675 34.8673 84.2675 33.741V27.605C84.2675 26.4787 83.6656 25.8799 82.5365 25.8799H81.1912C80.0621 25.8799 79.4618 26.4787 79.4618 27.605V33.741ZM81.5404 33.9201C81.2278 33.9201 81.0598 33.7642 81.0598 33.4407V27.9053C81.0598 27.5934 81.2278 27.4259 81.5404 27.4259H82.2371C82.5498 27.4259 82.7177 27.5934 82.7177 27.9053V33.4407C82.7177 33.7642 82.5498 33.9201 82.2371 33.9201H81.5404Z" fill="white"/>
<path d="M85.4659 35.2737C85.4659 35.4064 85.5258 35.4661 85.6588 35.4661H88.5406C89.6697 35.4661 90.2717 34.8673 90.2717 33.741V27.6183C90.2717 26.492 89.6697 25.8799 88.5406 25.8799H85.6588C85.5258 25.8799 85.4659 25.9529 85.4659 26.0723V35.2737ZM87.1006 33.8853V27.4624H88.2047C88.5173 27.4624 88.6853 27.6299 88.6853 27.9534V33.4059C88.6853 33.7293 88.5173 33.8853 88.2047 33.8853H87.1006Z" fill="white"/>
<path d="M91.6629 25.8799C91.5298 25.8799 91.47 25.9529 91.47 26.0723V35.2737C91.47 35.3948 91.5298 35.4661 91.6629 35.4661H92.9117C93.0314 35.4661 93.1046 35.3948 93.1046 35.2737V26.0723C93.1046 25.9529 93.0314 25.8799 92.9117 25.8799H91.6629Z" fill="white"/>
<path d="M98.6042 25.8799C98.4595 25.8799 98.3764 25.9396 98.3282 26.0723L96.9829 29.511L95.6376 26.0723C95.5894 25.9396 95.5062 25.8799 95.3616 25.8799H94.1593C93.9797 25.8799 93.8966 25.9877 93.9681 26.1552L96.1664 31.4883V35.2272C96.1664 35.3815 96.2496 35.4661 96.4059 35.4661H97.5599C97.7162 35.4661 97.7994 35.3815 97.7994 35.2272V31.4883L99.9977 26.1552C100.069 25.9877 99.9861 25.8799 99.8048 25.8799H98.6042Z" fill="white"/>
<path d="M100.86 33.741C100.86 34.8673 101.461 35.4661 102.59 35.4661H103.935C105.064 35.4661 105.666 34.8673 105.666 33.741V27.605C105.666 26.4787 105.064 25.8799 103.935 25.8799H102.59C101.461 25.8799 100.86 26.4787 100.86 27.605V33.741ZM102.939 33.9201C102.626 33.9201 102.458 33.7642 102.458 33.4407V27.9053C102.458 27.5934 102.626 27.4259 102.939 27.4259H103.636C103.948 27.4259 104.116 27.5934 104.116 27.9053V33.4407C104.116 33.7642 103.948 33.9201 103.636 33.9201H102.939Z" fill="white"/>
<path d="M106.816 25.8799C106.697 25.8799 106.625 25.9529 106.625 26.0723V27.27C106.625 27.3894 106.697 27.4624 106.816 27.4624H108.21V35.2737C108.21 35.4064 108.283 35.4661 108.403 35.4661H109.651C109.783 35.4661 109.844 35.4064 109.844 35.2737V27.4624H111.236C111.369 27.4624 111.429 27.3894 111.429 27.27V26.0723C111.429 25.9529 111.369 25.8799 111.236 25.8799H106.816Z" fill="white"/>
<path d="M56.455 37.9044C56.3219 37.9044 56.2621 37.9773 56.2621 38.0968V47.2982C56.2621 47.4193 56.3219 47.4906 56.455 47.4906H57.7038C57.8235 47.4906 57.8967 47.4193 57.8967 47.2982V38.0968C57.8967 37.9773 57.8235 37.9044 57.7038 37.9044H56.455Z" fill="white"/>
<path d="M62.7842 37.9044C62.6512 37.9044 62.5913 37.9773 62.5913 38.0968V43.1528H62.5198L60.694 38.0603C60.6574 37.9525 60.5859 37.9044 60.4778 37.9044H59.2888C59.1691 37.9044 59.0959 37.9773 59.0959 38.0968V47.2982C59.0959 47.4193 59.1691 47.4906 59.2888 47.4906H60.5377C60.669 47.4906 60.7306 47.4193 60.7306 47.2982V42.2189H60.7904L62.6279 47.3347C62.6645 47.4425 62.736 47.4906 62.8441 47.4906H64.0331C64.1528 47.4906 64.226 47.4193 64.226 47.2982V38.0968C64.226 37.9773 64.1528 37.9044 64.0331 37.9044H62.7842Z" fill="white"/>
<path d="M67.1536 37.9044C66.0378 37.9044 65.4242 38.5032 65.4242 39.6295V42.4578C65.4242 42.685 65.5323 42.8293 65.7485 42.9007L68.5953 43.8362V45.4303C68.5953 45.7538 68.4274 45.9097 68.1147 45.9097H67.5377C67.2384 45.9097 67.0588 45.7538 67.0588 45.4303V44.5064C67.0588 44.3753 66.9973 44.3156 66.8659 44.3156H65.6171C65.4974 44.3156 65.4242 44.3753 65.4242 44.5064V45.7654C65.4242 46.8918 66.0378 47.4906 67.1536 47.4906H68.4989C69.628 47.4906 70.2299 46.8918 70.2299 45.7654V42.9969C70.2299 42.7696 70.1218 42.6386 69.9173 42.554L67.0588 41.6201V39.9663C67.0588 39.6544 67.2384 39.4869 67.5377 39.4869H68.1147C68.439 39.4869 68.5953 39.6544 68.5953 39.9663V40.9002C68.5953 41.0196 68.6668 41.0926 68.7882 41.0926H70.037C70.1684 41.0926 70.2299 41.0196 70.2299 40.9002V39.6295C70.2299 38.5032 69.628 37.9044 68.4989 37.9044H67.1536Z" fill="white"/>
<path d="M71.3802 37.9044C71.2605 37.9044 71.189 37.9773 71.189 38.0968V39.2944C71.189 39.4139 71.2605 39.4869 71.3802 39.4869H72.7737V47.2982C72.7737 47.4309 72.8469 47.4906 72.9666 47.4906H74.2154C74.3468 47.4906 74.4083 47.4309 74.4083 47.2982V39.4869H75.8001C75.9332 39.4869 75.993 39.4139 75.993 39.2944V38.0968C75.993 37.9773 75.9332 37.9044 75.8001 37.9044H71.3802Z" fill="white"/>
<path d="M77.145 37.9044C77.012 37.9044 76.9521 37.9773 76.9521 38.0968V47.2982C76.9521 47.4193 77.012 47.4906 77.145 47.4906H78.3939C78.5136 47.4906 78.5868 47.4193 78.5868 47.2982V38.0968C78.5868 37.9773 78.5136 37.9044 78.3939 37.9044H77.145Z" fill="white"/>
<path d="M79.7377 37.9044C79.618 37.9044 79.5465 37.9773 79.5465 38.0968V39.2944C79.5465 39.4139 79.618 39.4869 79.7377 39.4869H81.1312V47.2982C81.1312 47.4309 81.2044 47.4906 81.3241 47.4906H82.573C82.7043 47.4906 82.7659 47.4309 82.7659 47.2982V39.4869H84.1577C84.2907 39.4869 84.3506 39.4139 84.3506 39.2944V38.0968C84.3506 37.9773 84.2907 37.9044 84.1577 37.9044H79.7377Z" fill="white"/>
<path d="M88.7703 37.9044C88.6372 37.9044 88.5292 38.0122 88.5292 38.1449V45.4303C88.5292 45.7538 88.3612 45.9097 88.0486 45.9097H87.4233C87.1124 45.9097 86.9444 45.7538 86.9444 45.4303V38.1449C86.9444 38.0122 86.8363 37.9044 86.7033 37.9044H85.5509C85.4179 37.9044 85.3098 38.0122 85.3098 38.1449V45.7654C85.3098 46.8918 85.9101 47.4906 87.0392 47.4906H88.3845C89.5136 47.4906 90.1156 46.8918 90.1156 45.7654V38.1449C90.1156 38.0122 90.0075 37.9044 89.8744 37.9044H88.7703Z" fill="white"/>
<path d="M91.2657 37.9044C91.146 37.9044 91.0745 37.9773 91.0745 38.0968V39.2944C91.0745 39.4139 91.146 39.4869 91.2657 39.4869H92.6592V47.2982C92.6592 47.4309 92.7324 47.4906 92.8521 47.4906H94.1009C94.2323 47.4906 94.2938 47.4309 94.2938 47.2982V39.4869H95.6856C95.8187 39.4869 95.8785 39.4139 95.8785 39.2944V38.0968C95.8785 37.9773 95.8187 37.9044 95.6856 37.9044H91.2657Z" fill="white"/>
<path d="M97.0305 37.9044C96.8975 37.9044 96.8376 37.9773 96.8376 38.0968V47.2982C96.8376 47.4193 96.8975 47.4906 97.0305 47.4906H98.2794C98.3991 47.4906 98.4723 47.4193 98.4723 47.2982V38.0968C98.4723 37.9773 98.3991 37.9044 98.2794 37.9044H97.0305Z" fill="white"/>
<path d="M21.0788 36.5304H29.044C29.1039 36.5304 29.1637 36.542 29.2203 36.5652C29.2768 36.5885 29.3267 36.6216 29.3699 36.6648C29.4132 36.7079 29.4464 36.7577 29.4697 36.8141C29.493 36.8704 29.5046 36.9285 29.5046 36.9899V49.5371C29.5046 49.5984 29.493 49.6565 29.4697 49.7129C29.4464 49.7693 29.4132 49.8191 29.3699 49.8622C29.3267 49.9053 29.2768 49.9385 29.2203 49.9617C29.1637 49.9849 29.1039 49.9966 29.044 49.9966H21.0788C21.0173 49.9966 20.9591 49.9849 20.9025 49.9617C20.846 49.9385 20.7961 49.9053 20.7529 49.8622C20.7096 49.8191 20.6764 49.7693 20.6531 49.7129C20.6298 49.6565 20.6182 49.5984 20.6182 49.5371V36.9899C20.6182 36.9285 20.6298 36.8704 20.6531 36.8141C20.6764 36.7577 20.7096 36.7079 20.7529 36.6648C20.7961 36.6216 20.846 36.5885 20.9025 36.5652C20.9591 36.542 21.0173 36.5304 21.0788 36.5304Z" fill="white"/>
<path opacity="0.4" d="M21.082 10.2846H29.0473C29.1071 10.2846 29.167 10.2962 29.2235 10.3211C29.2801 10.3443 29.3299 10.3775 29.3732 10.4206C29.4164 10.4638 29.4497 10.5135 29.473 10.5699C29.4962 10.6263 29.5079 10.6844 29.5079 10.7458V34.6474C29.5079 34.7088 29.4962 34.7685 29.473 34.8249C29.4497 34.8813 29.4164 34.9311 29.3732 34.9742C29.3299 35.0173 29.2801 35.0505 29.2235 35.0737C29.167 35.097 29.1071 35.1086 29.0473 35.1086H21.082C21.0205 35.1086 20.9623 35.097 20.9058 35.0737C20.8492 35.0505 20.7993 35.0173 20.7561 34.9742C20.7129 34.9311 20.6796 34.8813 20.6563 34.8249C20.6331 34.7685 20.6198 34.7088 20.6198 34.6474V10.7458C20.6198 10.6844 20.6331 10.6263 20.6563 10.5699C20.6796 10.5135 20.7129 10.4638 20.7561 10.4206C20.7993 10.3775 20.8492 10.3443 20.9058 10.3211C20.9623 10.2962 21.0205 10.2846 21.082 10.2846Z" fill="white"/>
<path opacity="0.4" d="M30.9297 10.8561C30.9297 10.5423 31.1872 10.288 31.5049 10.288H39.2409C39.5586 10.288 39.8162 10.5423 39.8162 10.8561V27.0974C39.8162 27.4112 39.5586 27.6656 39.2409 27.6656H31.5049C31.1872 27.6656 30.9297 27.4112 30.9297 27.0974V10.8561Z" fill="white"/>
<path d="M31.3871 29.0873H39.3524C39.4122 29.0873 39.4721 29.0989 39.5286 29.1221C39.5852 29.1453 39.635 29.1785 39.6783 29.2216C39.7215 29.2648 39.7548 29.3145 39.7781 29.3709C39.8013 29.4273 39.813 29.4854 39.813 29.5468V49.5387C39.813 49.6 39.8013 49.6581 39.7781 49.7145C39.7548 49.7709 39.7215 49.8207 39.6783 49.8638C39.635 49.9069 39.5852 49.9401 39.5286 49.9633C39.4721 49.9882 39.4122 49.9998 39.3524 49.9998H31.3871C31.3256 49.9998 31.2674 49.9882 31.2109 49.9633C31.1543 49.9401 31.1044 49.9069 31.0612 49.8638C31.018 49.8207 30.9847 49.7709 30.9614 49.7145C30.9382 49.6581 30.9265 49.6 30.9265 49.5387V29.5468C30.9265 29.4854 30.9382 29.4273 30.9614 29.3709C30.9847 29.3145 31.018 29.2648 31.0612 29.2216C31.1044 29.1785 31.1543 29.1453 31.2109 29.1221C31.2674 29.0989 31.3256 29.0873 31.3871 29.0873Z" fill="white"/>
<path d="M50.1216 19.9839V49.9966H41.2351V19.9839" fill="white"/>
<path d="M50.1061 0.461147V8.40681C50.1061 8.46819 50.0944 8.52625 50.0695 8.58265C50.0462 8.63905 50.013 8.68881 49.9697 8.73194C49.9265 8.77507 49.8766 8.80824 49.8201 8.83147C49.7635 8.85469 49.7053 8.8663 49.6438 8.8663H9.35041C9.28888 8.8663 9.22902 8.87792 9.17248 8.90114C9.11594 8.92436 9.06605 8.95754 9.02282 9.00067C8.97958 9.0438 8.94633 9.09356 8.92138 9.14996C8.8981 9.20802 8.88646 9.26608 8.88646 9.32745V49.5285C8.88646 49.5899 8.87482 49.648 8.85154 49.7044C8.82826 49.7608 8.79501 49.8105 8.75177 49.8537C8.70853 49.8968 8.65865 49.93 8.60211 49.9532C8.54557 49.9764 8.48737 49.988 8.42584 49.988H0.462282C0.400756 49.988 0.342555 49.9764 0.286016 49.9532C0.229478 49.93 0.179591 49.8968 0.136357 49.8537C0.0931214 49.8105 0.059864 49.7608 0.0349206 49.7044C0.0116404 49.648 0 49.5899 0 49.5285V0.461147C0 0.399772 0.0116404 0.341713 0.0349206 0.285314C0.0582012 0.228915 0.0931214 0.179151 0.136357 0.136022C0.179591 0.0928928 0.229478 0.0597171 0.286016 0.0364937C0.342555 0.0132702 0.400756 0 0.462282 0H49.6438C49.7053 0 49.7652 0.0132702 49.8201 0.0364937C49.8766 0.0597171 49.9265 0.0928928 49.9714 0.136022C50.0146 0.179151 50.0479 0.228915 50.0712 0.285314C50.0944 0.341713 50.1061 0.399772 50.1061 0.461147Z" fill="white"/>
<path opacity="0.4" d="M10.7721 10.2846H18.7374C18.7989 10.2846 18.8571 10.2962 18.9136 10.3211C18.9702 10.3443 19.0201 10.3775 19.0633 10.4206C19.1065 10.4638 19.1398 10.5135 19.1631 10.5699C19.1863 10.6263 19.198 10.6844 19.198 10.7458V30.7476C19.198 30.809 19.1863 30.867 19.1631 30.9234C19.1398 30.9798 19.1065 31.0296 19.0633 31.0727C19.0201 31.1158 18.9702 31.149 18.9136 31.1722C18.8571 31.1955 18.7989 31.2071 18.7374 31.2071H10.7721C10.7106 31.2071 10.6524 31.1955 10.5959 31.1722C10.5393 31.149 10.4895 31.1158 10.4462 31.0727C10.403 31.0296 10.3697 30.9798 10.3464 30.9234C10.3232 30.867 10.3115 30.809 10.3115 30.7476V10.7458C10.3115 10.6844 10.3232 10.6263 10.3464 10.5699C10.3697 10.5135 10.403 10.4638 10.4462 10.4206C10.4895 10.3775 10.5393 10.3443 10.5959 10.3211C10.6524 10.2962 10.7106 10.2846 10.7721 10.2846Z" fill="white"/>
<path opacity="0.4" d="M41.7002 10.2846H49.6655C49.727 10.2846 49.7852 10.2962 49.8417 10.3211C49.8983 10.3443 49.9482 10.3775 49.9914 10.4206C50.0346 10.4638 50.0679 10.5135 50.0912 10.5699C50.1144 10.6263 50.1261 10.6844 50.1261 10.7458V18.1075C50.1261 18.1689 50.1144 18.227 50.0912 18.2834C50.0679 18.3398 50.0346 18.3895 49.9914 18.4326C49.9482 18.4758 49.8983 18.509 49.8417 18.5322C49.7852 18.5554 49.727 18.567 49.6655 18.567H41.7002C41.6387 18.567 41.5805 18.5554 41.524 18.5322C41.4674 18.509 41.4176 18.4758 41.3743 18.4326C41.3311 18.3895 41.2978 18.3398 41.2745 18.2834C41.2513 18.227 41.2396 18.1689 41.2396 18.1075V10.7458C41.2396 10.6844 41.2513 10.6263 41.2745 10.5699C41.2978 10.5135 41.3311 10.4638 41.3743 10.4206C41.4176 10.3775 41.4674 10.3443 41.524 10.3211C41.5805 10.2962 41.6387 10.2846 41.7002 10.2846Z" fill="white"/>
</svg>
